<svg width="269" height="59" viewBox="0 0 269 59" fill="none" xmlns="http://www.w3.org/2000/svg">
<path d="M-9.53674e-07 48V3.2H9.6L16 9.6V12.8H19.2V16L22.4 19.2V22.4L25.6 19.2V16L28.8 12.8V9.6L35.2 3.2H44.8L48 6.4V48H32V28.8L28.8 32V38.4H19.2L16 35.2V32L12.8 28.8V48H-9.53674e-07ZM1.536 46.464H10.752V43.392H4.608V6.528H1.536V46.464ZM6.912 41.088H11.52V8.832H10.752V6.528H7.68V8.832H6.912V41.088ZM7.68 40.32V8.832H10.752V40.32H7.68ZM41.472 40.32H44.544V15.744H41.472V9.6H39.168V8.832H34.56V9.6H32.256V12.672H34.56V13.44H38.4V18.816H41.472V40.32ZM38.4 13.44V12.672H34.56V9.6H39.168V13.44H38.4ZM16.896 28.032H19.968V27.264H16.896V24.96H16.128V22.656H19.968V27.264H20.736V22.656H19.968V21.888H16.896V15.744H13.824V24.96H16.128V27.264H16.896V28.032ZM35.328 46.464H44.544V43.392H39.168V22.656H38.4V21.888H35.328V15.744H29.184V18.816H32.256V24.96H34.56V45.696H35.328V46.464ZM26.112 28.032H29.184V27.264H26.112V22.656H29.184V27.264H29.952V22.656H29.184V21.888H26.112V22.656H25.344V27.264H26.112V28.032ZM39.168 43.392V45.696H35.328V24.96H34.56V22.656H38.4V43.392H39.168ZM20.736 36.48H25.344V31.872H23.04V28.032H19.968V34.176H20.736V36.48ZM20.736 31.872H23.04V34.176H20.736V31.872ZM64.7965 20.224V19.2H63.7725V20.224H64.7965ZM78.1085 25.344V21.248H77.0845V20.224H76.0605V17.152H74.5245V18.176H75.0365V21.248H76.0605V22.272H77.0845V25.344H78.1085ZM71.9645 23.296V22.272H71.3245V23.296H71.9645ZM71.9645 23.296H71.3245V24.32H71.9645V23.296ZM79.1325 20.224V25.344H81.1805V24.32H80.1565V19.2H79.1325V18.176H78.1085V16.128H77.0845V19.2H78.1085V20.224H79.1325ZM72.9885 24.32H71.3245V25.344H72.9885V24.32ZM65.8205 28.416H66.8445V27.52L66.7165 27.392H65.8205V28.416ZM74.0125 34.56H72.9885V36.608H74.0125V39.68H77.7245V40.704H78.1085V41.728H77.7245V40.704H72.9885V37.632H71.9645V35.584H70.9405V34.56H69.9165V29.44H68.8925V28.416H68.5085L69.9165 27.008V26.368H70.5565L69.9165 27.008V28.416H70.9405V33.536H71.9645V32.512H72.9885V33.536H74.0125V34.56H75.0365V32.512H74.0125V31.488H72.9885V26.368H71.9645V27.392H70.9405V26.368H70.5565L71.3245 25.6V25.344H70.9405V19.2H71.3245V20.224H71.9645V19.2H72.9885V23.296H74.0125V24.32H75.0365V25.344H76.0605V23.296H75.0365V22.272H74.0125V19.2H74.5245V18.176H74.0125V16.128H74.5245V17.152H75.0365V16.128H74.5245V16H87.3245V18.176H86.3005V16.128H85.2765V19.2H86.3005V20.224H87.3245V21.248H85.2765V20.224H84.2525V16.128H83.2285V21.248H84.2525V22.272H87.3245V22.4H84.1245V23.296H84.2525V24.32H84.1245V23.296H83.2285V22.272H82.2045V17.152H81.1805V16.128H79.1325V17.152H80.1565V18.176H81.1805V23.296H82.2045V24.32H83.2285V26.368H84.1245V28.8L83.2285 29.696V30.464H82.4605L83.2285 29.696V27.392H82.2045V25.344H81.1805V26.368H80.1565V25.344H78.1085V26.368H79.1325V27.392H80.1565V29.44H81.1805V28.416H82.2045V30.464H82.4605L81.1805 31.744V34.56H80.9245V33.536H80.1565V30.464H79.1325V28.416H78.1085V27.392H77.0845V25.344H76.0605V28.416H77.0845V29.44H78.1085V31.488H79.1325V34.56H78.1085V35.584H80.5405L79.1325 36.992V37.632H78.4925L79.1325 36.992V36.608H77.0845V34.56H76.0605V37.632H78.4925L77.7245 38.4V38.656H78.1085V39.68H77.7245V38.656H75.0365V35.584H74.0125V34.56ZM78.1085 44.8H77.7245V43.776H77.0845V42.752H70.9405V39.68H69.9165V37.632H68.8925V36.608H67.8685V31.488H66.8445V30.464H65.8205V29.44H64.7965V22.272H63.7725V21.248H62.7485V20.224H61.7245V19.2H64.9245V25.6L66.7165 27.392H66.8445V27.52L67.7405 28.416H68.5085L68.1245 28.8L67.7405 28.416H66.8445V29.44H67.8685V30.464H68.8925V35.584H69.9165V36.608H70.9405V38.656H71.9645V41.728H77.7245V43.776H78.1085V44.8ZM60.7005 46.848V46.976L61.5965 47.872H61.7245V45.824H60.7005V44.8H59.6765V39.68H58.6525V38.656H57.6285V37.632H56.6045V30.464H55.5805V29.44H54.5565V28.416H53.5325V24.32H52.5085V23.296H51.4845V22.272H50.4605V21.248H48.9245V22.272H49.4365V22.912L49.8205 23.296H50.4605V23.936L50.8445 24.32H51.4845V24.96L51.8685 25.344H52.5085V29.184L52.7645 29.44H53.5325V30.208L53.7885 30.464H54.5565V31.232L54.8125 31.488H55.5805V38.656H56.6045V39.68H57.6285V40.704H58.6525V44.928L59.5485 45.824H59.6765V45.952L60.5725 46.848H60.7005ZM71.9645 51.968H71.3245V51.2L71.5805 50.944H62.7485V47.872H61.5965L61.7245 48H60.7005V48.896H61.7245V51.968H71.3245V52.992H71.9645V54.016H71.3245V52.992H60.7005V49.92H59.6765V48H60.7005V46.976L60.5725 46.848H59.6765V45.952L59.5485 45.824H58.6525V44.928L58.5245 44.8V41.6L55.3245 38.4V32L54.8125 31.488H54.5565V31.232L53.7885 30.464H53.5325V30.208L52.7645 29.44H52.5085V29.184L52.1245 28.8V25.6L51.8685 25.344H51.4845V24.96L50.8445 24.32H50.4605V23.936L49.8205 23.296H49.4365V22.912L48.9245 22.4V22.272H48.4125V16.128H48.9245V17.152H49.4365V16.128H48.9245V16H61.7245V16.128H59.6765V17.152H60.7005V21.248H61.7245V22.272H62.7485V23.296H63.7725V30.464H64.7965V31.488H65.8205V32.512H66.8445V37.632H67.8685V38.656H68.8925V40.704H69.9165V43.776H76.0605V44.8H75.0365V45.824H74.5245V44.8H68.8925V41.728H67.8685V39.68H66.8445V38.656H65.8205V33.536H64.7965V32.512H63.7725V31.488H62.7485V24.32H61.7245V23.296H60.7005V22.272H59.6765V18.176H58.6525V17.152H57.6285V16.128H55.5805V17.152H56.6045V18.176H57.6285V19.2H58.6525V23.296H59.6765V24.32H60.7005V25.344H61.7245V32.512H62.7485V33.536H63.7725V34.56H64.7965V39.68H65.8205V40.704H66.8445V42.752H67.8685V45.824H74.5245V46.848H75.0365V47.872H74.5245V46.848H66.8445V43.776H65.8205V41.728H64.7965V40.704H63.7725V35.584H62.7485V34.56H61.7245V33.536H60.7005V26.368H59.6765V25.344H58.6525V24.32H57.6285V20.224H56.6045V19.2H55.5805V18.176H54.5565V17.152H53.5325V16.128H52.5085V18.176H53.5325V19.2H54.5565V20.224H55.5805V21.248H56.6045V25.344H57.6285V26.368H58.6525V27.392H59.6765V34.56H60.7005V35.584H61.7245V36.608H62.7485V41.728H63.7725V42.752H64.7965V44.8H65.8205V47.872H74.5245V48L72.9885 49.536V49.92H72.6045L72.9885 49.536V48.896H64.7965V45.824H63.7725V43.776H62.7485V42.752H61.7245V37.632H60.7005V36.608H59.6765V35.584H58.6525V28.416H57.6285V27.392H56.6045V26.368H55.5805V22.272H54.5565V21.248H53.5325V20.224H52.5085V19.2H51.4845V16.128H50.4605V20.224H51.4845V21.248H52.5085V22.272H53.5325V23.296H54.5565V27.392H55.5805V28.416H56.6045V29.44H57.6285V36.608H58.6525V37.632H59.6765V38.656H60.7005V43.776H61.7245V44.8H62.7485V46.848H63.7725V49.92H72.6045L71.5805 50.944H71.9645V51.968ZM69.9165 56.064H69.6605L69.9165 55.808V55.04H58.6525V51.968H57.7565L58.5245 51.2V48H58.6525V47.872H59.6765V48H58.6525V50.944H59.6765V54.016H71.3245V54.4L69.9165 55.808V56.064ZM57.6285 51.968H57.7565L57.6285 52.096V56.064H69.6605L68.1245 57.6H67.8685V57.088H56.6045V54.016H55.7085L57.6285 52.096V51.968ZM49.4365 18.176V17.152H48.9245V18.176H49.4365ZM49.4365 19.2V18.176H48.9245V19.2H49.4365ZM49.4365 20.224V19.2H48.9245V20.224H49.4365ZM71.9645 21.248V20.224H71.3245V21.248H71.9645ZM49.4365 20.224H48.9245V21.248H49.4365V20.224ZM71.9645 22.272V21.248H71.3245V22.272H71.9645ZM84.2525 25.344V24.32H84.1245V25.344H84.2525ZM84.2525 26.368H84.1245V25.344H84.2525V26.368ZM77.0845 34.56H78.1085V32.512H77.0845V30.464H76.0605V29.44H75.0365V25.344H74.0125V30.464H75.0365V31.488H76.0605V33.536H77.0845V34.56ZM81.1805 35.584H80.5405L80.9245 35.2V34.56H81.1805V35.584ZM55.3245 57.6V54.4L55.5805 54.144V54.016H55.7085L55.5805 54.144V57.6H67.8685V58.112H55.5805V57.6H55.3245ZM99.002 5.504V4.48H98.49V5.504H99.002ZM139.962 14.72V3.456H137.914V4.48H138.938V14.72H139.962ZM102.074 3.456V4.992H102.586V3.456H102.074ZM111.29 7.552V6.528H110.778V7.552H111.29ZM99.002 9.6V8.576H98.49V9.6H99.002ZM101.05 5.504H100.538V4.992H101.05V5.504ZM111.29 8.576V7.552H110.778V8.576H111.29ZM111.29 9.6V8.576H110.778V9.6H111.29ZM111.29 10.624V9.6H110.778V10.624H111.29ZM111.29 11.648V10.624H110.778V11.648H111.29ZM129.722 22.912H129.21V23.936H129.722V22.912ZM139.962 18.816V16.768H138.938V15.744H137.914V5.504H136.89V3.456H135.866V6.528H136.89V16.768H137.914V17.792H138.938V18.816H139.962ZM114.362 18.816V17.792H113.85V18.816H114.362ZM117.434 23.936V21.888H116.41V14.72H113.85V12.16H113.338V5.248L112.57 4.48H112.314V4.224L111.546 3.456H110.778V4.48H111.29V5.504H112.314V12.16H113.338V14.72H113.85V15.744H115.386V22.912H116.41V23.936H117.434ZM129.722 22.912V22.4H129.21V22.912H129.722ZM121.53 23.936V22.912H120.89V23.936H121.53ZM121.53 24.96V23.936H120.89V24.96H121.53ZM121.53 25.984V24.96H120.89V25.984H121.53ZM134.33 22.4V21.888H133.818V20.864H132.794V12.16H131.77V11.648H130.746V3.456H130.234L130.49 3.2H140.09L141.37 4.48H142.01V5.12L143.29 6.4L142.01 7.68V8.576H141.114L142.01 7.68V5.12L141.37 4.48H140.986V8.576H141.114L140.09 9.6V19.2L138.938 20.352V20.864H138.426L138.938 20.352V19.84H137.914V18.816H136.89V17.792H135.866V7.552H134.842V3.456H133.818V8.576H134.842V18.816H135.866V19.84H136.89V20.864H138.426L136.89 22.4V21.888H135.866V20.864H134.33V21.888H134.842V22.912H135.866V23.936H136.89V24.96H134.842V23.936H133.818V22.912H132.794V22.4H130.746V12.672H129.722V12.16H128.698V5.504H128.186L129.722 3.968V3.456H130.234L129.722 3.968V12.16H131.77V21.888H132.794V22.4H134.33ZM113.85 22.4H113.338V17.792H110.778V18.816H112.314V22.4H113.338V24.96H114.362V25.984H115.386V27.008H116.41V27.52H117.434V25.984H116.41V24.96H115.386V23.936H114.362V21.888H113.85V22.4ZM112.314 27.008V27.52H114.362V27.008H113.338V25.984H112.314V22.4H111.29V19.84H108.73V20.864H110.266V22.4H111.29V27.008H112.314ZM119.482 28.032V27.392L119.098 27.008H118.458V27.52H118.97V28.032H119.482ZM119.482 29.056V28.032H118.97V29.056H119.482ZM109.242 21.888H108.73V22.4H109.242V29.056H110.266V30.08H110.778V28.032H110.266V22.4H109.242V21.888ZM121.53 31.104V30.08H121.018V31.104H121.53ZM125.626 24.96V25.472H126.65V27.008H127.674V28.032H128.698V29.056H129.722V30.08H135.61L133.818 31.872V32.128H133.69V32L133.818 31.872V31.104H128.698V30.08H127.674V29.056H126.65V28.032H125.626V25.472H125.114V24.96H125.626ZM122.554 32.128H121.018V32.64H122.554V33.152H123.578V34.176H124.09V35.2H124.602V34.176H124.09V32.64H122.554V32.128ZM108.73 25.472V22.4H105.146V22.912H104.634V22.4H104.122V19.328H103.61V22.4H104.122V23.936H104.634V24.96H106.17V25.472H107.194V31.104H108.218V32.128H109.242V33.152H110.266V33.664H110.778V32.128H110.266V31.104H109.242V30.08H108.218V25.472H107.194V23.936H104.634V22.912H108.218V25.472H108.73ZM125.626 22.912H125.114V22.4H124.602V18.816H124.09V22.4H124.602V29.056H125.626V30.08H126.65V31.104H127.674V32.128H133.69V33.152H133.818V34.176H133.69V33.152H126.65V32.128H125.626V31.104H124.602V30.08H123.578V19.84H123.45L124.09 19.2V18.816H123.578V9.6H124.09V10.624H124.602V9.6H124.09L125.626 8.064V7.552H126.138L125.626 8.064V12.16H126.65V15.744H127.674V17.28H128.698V14.72H127.674V12.16H126.65V7.552H126.138L127.674 6.016V5.504H128.186L127.674 6.016V12.16H128.698V13.696H129.722V22.4H130.746V22.912H131.77V23.936H132.794V24.96H133.818V25.984H136.89V27.008H132.794V25.984H131.77V24.96H130.746V23.936H129.21V24.96H129.722V25.984H130.746V27.008H131.77V28.032H136.89V28.8L135.866 29.824V30.08H135.61L135.866 29.824V29.056H130.746V28.032H129.722V27.008H128.698V25.984H127.674V25.472H126.65V22.4H125.626V22.912ZM113.338 37.248V36.224H112.826V37.248H113.338ZM113.338 36.224V35.712H112.826V36.224H113.338ZM131.77 40.32V39.296H127.162V40.32H131.77ZM109.242 41.344V41.856H110.266V43.392H111.29V44.416H112.314V45.44H113.338V46.464H130.49V48H129.722V47.488H112.314V46.464H111.29V45.44H110.266V44.416H109.242V41.856H108.73V41.344H109.242ZM99.002 6.528V5.504H98.49V6.528H99.002ZM101.05 6.528H100.538V5.504H101.05V6.528ZM99.002 7.552V6.528H98.49V7.552H99.002ZM101.05 7.552H100.538V6.528H101.05V7.552ZM99.002 8.576V7.552H98.49V8.576H99.002ZM101.05 8.576H100.538V7.552H101.05V8.576ZM99.002 10.624V9.6H98.49V10.624H99.002ZM101.05 8.576V9.088H102.586V8.576H102.074V4.992H101.05V3.456H100.026V10.624H100.538V12.672H101.05V13.184H102.586V12.672H102.074V11.648H101.05V10.624H100.538V9.6H102.074V10.624H102.586V9.088H101.05V9.6H100.538V8.576H101.05ZM99.002 10.624H98.49V11.648H99.002V10.624ZM124.602 11.648V10.624H124.09V11.648H124.602ZM114.362 17.792V16.768H113.85V15.744H112.314V12.16H111.29V11.648H110.778V12.16H111.29V16.768H113.85V17.792H114.362ZM124.602 11.648H124.09V12.16H124.602V17.792H125.114V17.28H126.65V16.768H125.626V12.16H124.602V11.648ZM114.362 19.84V18.816H113.85V19.84H114.362ZM131.77 10.624H132.794V12.16H133.818V19.84H134.33V20.864H134.842V19.84H134.33V12.16H133.818V9.6H132.794V3.456H131.77V10.624ZM114.362 20.864V19.84H113.85V20.864H114.362ZM114.362 21.888V20.864H113.85V21.888H114.362ZM125.626 23.936H125.114V22.912H125.626V23.936ZM129.21 25.472V24.96H128.698V22.4H127.674V25.472H129.21ZM125.626 24.96H125.114V23.936H125.626V24.96ZM121.53 27.008V25.984H120.89V27.008H121.53ZM121.53 28.032V27.008H120.89V28.032H121.53ZM121.53 31.104H121.018V32.128H121.53V31.104ZM119.482 29.056H118.97V29.568H119.482V32.64H120.506V29.568H119.482V29.056ZM121.018 33.664H119.482V34.176H120.506V35.2H121.53V35.712H123.578V35.2H122.554V34.176H121.53V33.152H121.018V33.664ZM109.242 36.224H108.73V35.2H109.242V36.224ZM118.97 35.712H117.434V36.224H118.458V37.248H118.97V35.712H119.482V35.2H118.97V35.712ZM112.826 37.76H112.314V35.712H111.29V37.76H112.826V38.272H113.338V37.248H112.826V37.76ZM109.242 37.248H108.73V36.224H109.242V37.248ZM113.338 39.296V38.272H112.826V39.296H113.338ZM116.41 39.296H117.434V40.32H118.458V41.344H118.97V39.296H118.458V38.272H117.434V37.248H116.41V35.712H115.386V38.272H116.41V39.296ZM113.338 39.296H112.826V40.32H113.338V39.296ZM109.242 39.296H108.73V38.272H109.242V39.296ZM109.242 40.32H108.73V39.296H109.242V40.32ZM109.242 41.344H108.73V40.32H109.242V41.344ZM111.29 48L110.778 47.488H110.266V46.976L109.754 46.464H109.242V45.952L108.73 45.44H108.218V44.928L108.09 44.8V35.2H107.194V34.304L107.066 34.176H106.17V33.28L106.042 33.152H105.146V32.256L104.89 32V25.984H102.074V25.6H101.69V16L101.434 15.744H101.05V15.36L100.41 14.72H100.026V14.336L99.386 13.696H99.002V13.312L98.49 12.8V12.672H97.978V3.456H98.49V4.48H99.002V3.456H98.49V3.2H102.586V2.944H110.778V3.2H111.29L111.546 3.456H112.314V4.224L112.57 4.48H113.338V5.248L114.49 6.4V12.8L117.69 16V25.6L119.098 27.008H119.482V27.392L120.506 28.416V29.568H121.018V30.08H121.53V28.032H120.89V28.8L120.506 28.416V21.888H121.402L120.89 22.4V22.912H121.53V21.888H121.402L122.554 20.736V19.84H123.45L122.554 20.736V31.104H123.578V32.128H124.602V33.152H125.626V34.176H133.69V35.2H133.818V36.224H133.69V35.2H124.09V35.712H127.162V36.224H133.69V37.248H133.818V38.272H133.69V37.248H127.162V38.272H133.69V38.4L130.746 41.344V42.368H130.49V41.6L130.746 41.344H127.162V41.856H129.21V42.368H130.49V43.392H130.746V44.416H130.49V43.392H129.21V42.368H127.162V43.392H129.21V44.416H130.49V45.44H130.746V46.464H130.49V45.44H129.21V44.416H116.922V43.392H116.41V42.88H114.362V42.368H113.85V41.344H115.386V42.368H116.41V42.88H116.922V43.392H118.97V42.88H116.922V41.856H117.434V41.344H116.41V40.32H115.386V39.296H114.362V35.712H113.85V40.32H114.362V41.344H113.85V40.32H112.826V41.344H113.338V42.368H113.85V42.88H114.362V43.392H115.386V44.416H116.922V45.44H129.21V45.952H116.922V45.44H114.362V44.416H113.338V43.392H112.314V42.368H111.29V41.856H110.266V37.76H109.242V38.272H108.73V37.248H109.242V37.76H111.29V41.856H112.826V41.344H112.314V37.76H110.266V33.664H108.73V34.176H109.242V35.2H108.73V34.176H108.218V33.152H107.194V32.128H106.17V25.472H104.634V24.96H103.098V19.328H102.586V14.72H102.074V13.696H101.05V13.184H100.538V12.672H100.026V11.648H98.49V12.672H99.002V13.312L99.386 13.696H100.026V14.336L100.41 14.72H101.05V15.36L101.434 15.744H102.074V25.6H104.89V25.984H105.146V32.256L106.042 33.152H106.17V33.28L107.066 34.176H107.194V34.304L108.09 35.2H108.218V44.928L108.73 45.44H109.242V45.952L109.754 46.464H110.266V46.976L110.778 47.488H111.29V48H129.722V48.512H111.29V48ZM148.985 12.8V-3.8147e-06H158.585L161.785 3.2V9.6L158.585 12.8H148.985ZM159.609 4.48V3.456H157.561V1.408H156.537V4.48H159.609ZM159.609 6.528V5.504H155.513V1.408H154.489V6.528H159.609ZM159.609 8.576V7.552H153.465V1.408H152.441V8.576H159.609ZM158.585 10.624V9.6H151.417V1.408H150.393V10.624H158.585ZM145.785 48V19.2L148.985 16H161.785V48H145.785ZM152.441 21.888V17.792H151.417V21.376H151.929V21.888H152.441ZM149.369 17.792V21.376H150.393V17.792H149.369ZM152.441 22.912V21.888H151.929V22.912H152.441ZM152.441 23.936V22.912H151.929V23.936H152.441ZM152.441 24.96V23.936H151.929V24.96H152.441ZM152.441 25.984V24.96H151.929V25.984H152.441ZM152.441 27.008V25.984H151.929V27.008H152.441ZM152.441 28.032V27.008H151.929V28.032H152.441ZM152.441 29.056V28.032H151.929V29.056H152.441ZM152.441 30.08V29.056H151.929V30.08H152.441ZM152.441 31.104V30.08H151.929V31.104H152.441ZM152.441 32.128V31.104H151.929V32.128H152.441ZM152.441 33.152V32.128H151.929V33.152H152.441ZM152.441 34.176V33.152H151.929V34.176H152.441ZM152.441 35.2V34.176H151.929V35.2H152.441ZM152.441 36.224V35.2H151.929V36.224H152.441ZM152.441 37.248V36.224H151.929V37.248H152.441ZM152.441 38.272V37.248H151.929V38.272H152.441ZM159.609 38.272V37.76H156.025V17.792H155.513V38.272H159.609ZM152.441 39.296V38.272H151.929V39.296H152.441ZM152.441 40.32V39.296H151.929V40.32H152.441ZM159.609 40.32V39.296H154.489V17.792H153.465V40.32H159.609ZM152.441 40.32H151.929V41.344H152.441V40.32ZM159.609 41.344H151.929V41.856H159.609V41.344ZM159.609 46.464V45.952H147.833V21.376H148.345V19.84H147.321V46.464H159.609ZM176.828 16.256V17.28H177.34V16.256H176.828ZM180.412 21.888V18.816H179.9V21.888H180.412ZM172.732 20.352H171.196V18.816H172.732V20.352ZM191.164 20.352H189.628V18.816H191.164V20.352ZM185.02 20.352H183.484V18.816H185.02V20.352ZM201.916 24.96V21.888H201.404V24.96H201.916ZM192.7 21.888H192.188V24.96H192.7V21.888ZM180.412 24.96V21.888H179.9V24.96H180.412ZM205.5 22.4H204.988V21.888H205.5V22.4ZM180.412 28.032V24.96H179.9V28.032H180.412ZM180.412 31.104V28.032H179.9V31.104H180.412ZM180.412 34.176V31.104H179.9V34.176H180.412ZM180.412 34.176H179.9V37.248H180.412V34.176ZM183.484 37.248H179.9V37.76H183.484V37.248ZM183.484 46.464H171.196V44.928H183.484V46.464ZM207.548 46.976V46.464H193.212V45.952H192.7V46.464H193.212V46.976H207.548ZM205.5 24.448H204.988V22.4H205.5V24.448ZM185.02 24.448H183.484V22.4H185.02V24.448ZM172.732 24.448H171.196V22.4H172.732V24.448ZM201.404 26.496V24.96H199.356V26.496H201.404ZM191.164 26.496H192.188V25.472H195.772V24.96H192.188V25.472H191.164V26.496H189.628V25.472H189.116V26.112L189.308 26.496H189.628V27.136L190.076 28.032H191.164V30.208L191.356 30.592H192.188V28.032H191.164V26.496ZM185.02 30.592V28.544H183.484V30.592H185.02ZM172.732 30.592H171.196V28.544H172.732V30.592ZM201.404 32.64V31.104H199.356V32.64H201.404ZM201.916 34.176V31.104H199.356V28.032H201.404V31.104H201.916V28.032H199.356V26.496H201.404V28.032H201.916V24.96H199.356V22.4H198.844V21.888H195.772V20.352H201.404V21.888H201.916V19.2H201.66L201.276 18.816H197.308V20.352H195.772V18.304H197.308V18.816H198.844V16.384L198.46 16H195.772V15.744H198.844V16.384L201.276 18.816H201.916V19.2H204.86L207.548 21.888H208.06V22.4L207.548 21.888H205.5V20.352H203.452V34.688H207.548V34.176H204.988V33.664H204.476V25.472H204.988V24.448H205.5V25.472H208.572V33.664H207.548V34.176H208.06V37.248H199.356V34.176H201.404V37.248H201.916V34.176H199.356V32.64H201.404V34.176H201.916ZM172.732 36.736H171.196V34.688H172.732V36.736ZM185.02 34.688V31.104H183.484V30.592H185.02V31.104H186.108L185.66 32V48H169.66V19.2L172.86 16H177.34V16.256H178.876V17.28H179.9V18.816H180.412V16H177.34V15.744H180.412V16H182.46L184.764 18.304H185.02V18.56L185.276 18.816H186.556V19.2H188.86L189.116 18.944V18.304H189.756L189.116 18.944V21.376H189.628V20.352H191.164V21.376H192.188V21.888H192.7V18.816H191.164V18.304H189.756L192.06 16H195.772V16.256H197.308V18.304H195.772V16.256H195.26V22.4H198.844V40.32H199.356V40.832H200.38V40.32H199.356V37.248H201.404V37.76H208.572V41.856H208.06V43.392H196.284V44.928H207.548V46.464H208.06V48H192.06V32L191.356 30.592H191.164V30.208L190.076 28.032H189.628V27.136L189.308 26.496H189.116V26.112L188.86 25.6L186.556 30.208V31.104H186.108L186.556 30.208V28.032H185.02V28.544H183.484V26.496H185.02V28.032H186.556V24.96H185.02V26.496H183.484V24.448H185.02V24.96H186.556V21.888H185.02V22.4H183.484V20.352H185.02V21.888H186.556V19.2H185.66L185.276 18.816H185.02V18.56L184.764 18.304H182.972V34.688H185.02ZM185.02 40.832V38.784H183.996V40.832H185.02ZM172.732 42.88H171.196V40.832H172.732V42.88ZM172.732 42.88V43.392H174.268V40.32H172.732V40.832H171.196V38.784H172.732V40.32H174.268V37.248H172.732V38.784H171.196V36.736H172.732V37.248H174.268V34.176H172.732V34.688H171.196V32.64H172.732V34.176H174.268V31.104H172.732V32.64H171.196V30.592H172.732V31.104H174.268V28.032H172.732V28.544H171.196V26.496H172.732V28.032H174.268V24.96H172.732V26.496H171.196V24.448H172.732V24.96H174.268V21.888H172.732V22.4H171.196V20.352H172.732V21.888H174.268V18.816H172.732V18.304H170.684V46.976H185.02V44.928H183.484V43.392H172.732V44.928H171.196V42.88H172.732ZM225.234 20.224V19.2H224.21V20.224H225.234ZM238.546 25.344V21.248H237.522V20.224H236.498V17.152H234.962V18.176H235.474V21.248H236.498V22.272H237.522V25.344H238.546ZM232.402 23.296V22.272H231.762V23.296H232.402ZM232.402 23.296H231.762V24.32H232.402V23.296ZM239.57 20.224V25.344H241.618V24.32H240.594V19.2H239.57V18.176H238.546V16.128H237.522V19.2H238.546V20.224H239.57ZM233.426 24.32H231.762V25.344H233.426V24.32ZM226.258 28.416H227.282V27.52L227.154 27.392H226.258V28.416ZM234.45 34.56H233.426V36.608H234.45V39.68H238.162V40.704H238.546V41.728H238.162V40.704H233.426V37.632H232.402V35.584H231.378V34.56H230.354V29.44H229.33V28.416H228.946L230.354 27.008V26.368H230.994L230.354 27.008V28.416H231.378V33.536H232.402V32.512H233.426V33.536H234.45V34.56H235.474V32.512H234.45V31.488H233.426V26.368H232.402V27.392H231.378V26.368H230.994L231.762 25.6V25.344H231.378V19.2H231.762V20.224H232.402V19.2H233.426V23.296H234.45V24.32H235.474V25.344H236.498V23.296H235.474V22.272H234.45V19.2H234.962V18.176H234.45V16.128H234.962V17.152H235.474V16.128H234.962V16H247.762V18.176H246.738V16.128H245.714V19.2H246.738V20.224H247.762V21.248H245.714V20.224H244.69V16.128H243.666V21.248H244.69V22.272H247.762V22.4H244.562V23.296H244.69V24.32H244.562V23.296H243.666V22.272H242.642V17.152H241.618V16.128H239.57V17.152H240.594V18.176H241.618V23.296H242.642V24.32H243.666V26.368H244.562V28.8L243.666 29.696V30.464H242.898L243.666 29.696V27.392H242.642V25.344H241.618V26.368H240.594V25.344H238.546V26.368H239.57V27.392H240.594V29.44H241.618V28.416H242.642V30.464H242.898L241.618 31.744V34.56H241.362V33.536H240.594V30.464H239.57V28.416H238.546V27.392H237.522V25.344H236.498V28.416H237.522V29.44H238.546V31.488H239.57V34.56H238.546V35.584H240.978L239.57 36.992V37.632H238.93L239.57 36.992V36.608H237.522V34.56H236.498V37.632H238.93L238.162 38.4V38.656H238.546V39.68H238.162V38.656H235.474V35.584H234.45V34.56ZM238.546 44.8H238.162V43.776H237.522V42.752H231.378V39.68H230.354V37.632H229.33V36.608H228.306V31.488H227.282V30.464H226.258V29.44H225.234V22.272H224.21V21.248H223.186V20.224H222.162V19.2H225.362V25.6L227.154 27.392H227.282V27.52L228.178 28.416H228.946L228.562 28.8L228.178 28.416H227.282V29.44H228.306V30.464H229.33V35.584H230.354V36.608H231.378V38.656H232.402V41.728H238.162V43.776H238.546V44.8ZM221.138 46.848V46.976L222.034 47.872H222.162V45.824H221.138V44.8H220.114V39.68H219.09V38.656H218.066V37.632H217.042V30.464H216.018V29.44H214.994V28.416H213.97V24.32H212.946V23.296H211.922V22.272H210.898V21.248H209.362V22.272H209.874V22.912L210.258 23.296H210.898V23.936L211.282 24.32H211.922V24.96L212.306 25.344H212.946V29.184L213.202 29.44H213.97V30.208L214.226 30.464H214.994V31.232L215.25 31.488H216.018V38.656H217.042V39.68H218.066V40.704H219.09V44.928L219.986 45.824H220.114V45.952L221.01 46.848H221.138ZM232.402 51.968H231.762V51.2L232.018 50.944H223.186V47.872H222.034L222.162 48H221.138V48.896H222.162V51.968H231.762V52.992H232.402V54.016H231.762V52.992H221.138V49.92H220.114V48H221.138V46.976L221.01 46.848H220.114V45.952L219.986 45.824H219.09V44.928L218.962 44.8V41.6L215.762 38.4V32L215.25 31.488H214.994V31.232L214.226 30.464H213.97V30.208L213.202 29.44H212.946V29.184L212.562 28.8V25.6L212.306 25.344H211.922V24.96L211.282 24.32H210.898V23.936L210.258 23.296H209.874V22.912L209.362 22.4V22.272H208.85V16.128H209.362V17.152H209.874V16.128H209.362V16H222.162V16.128H220.114V17.152H221.138V21.248H222.162V22.272H223.186V23.296H224.21V30.464H225.234V31.488H226.258V32.512H227.282V37.632H228.306V38.656H229.33V40.704H230.354V43.776H236.498V44.8H235.474V45.824H234.962V44.8H229.33V41.728H228.306V39.68H227.282V38.656H226.258V33.536H225.234V32.512H224.21V31.488H223.186V24.32H222.162V23.296H221.138V22.272H220.114V18.176H219.09V17.152H218.066V16.128H216.018V17.152H217.042V18.176H218.066V19.2H219.09V23.296H220.114V24.32H221.138V25.344H222.162V32.512H223.186V33.536H224.21V34.56H225.234V39.68H226.258V40.704H227.282V42.752H228.306V45.824H234.962V46.848H235.474V47.872H234.962V46.848H227.282V43.776H226.258V41.728H225.234V40.704H224.21V35.584H223.186V34.56H222.162V33.536H221.138V26.368H220.114V25.344H219.09V24.32H218.066V20.224H217.042V19.2H216.018V18.176H214.994V17.152H213.97V16.128H212.946V18.176H213.97V19.2H214.994V20.224H216.018V21.248H217.042V25.344H218.066V26.368H219.09V27.392H220.114V34.56H221.138V35.584H222.162V36.608H223.186V41.728H224.21V42.752H225.234V44.8H226.258V47.872H234.962V48L233.426 49.536V49.92H233.042L233.426 49.536V48.896H225.234V45.824H224.21V43.776H223.186V42.752H222.162V37.632H221.138V36.608H220.114V35.584H219.09V28.416H218.066V27.392H217.042V26.368H216.018V22.272H214.994V21.248H213.97V20.224H212.946V19.2H211.922V16.128H210.898V20.224H211.922V21.248H212.946V22.272H213.97V23.296H214.994V27.392H216.018V28.416H217.042V29.44H218.066V36.608H219.09V37.632H220.114V38.656H221.138V43.776H222.162V44.8H223.186V46.848H224.21V49.92H233.042L232.018 50.944H232.402V51.968ZM230.354 56.064H230.098L230.354 55.808V55.04H219.09V51.968H218.194L218.962 51.2V48H219.09V47.872H220.114V48H219.09V50.944H220.114V54.016H231.762V54.4L230.354 55.808V56.064ZM218.066 51.968H218.194L218.066 52.096V56.064H230.098L228.562 57.6H228.306V57.088H217.042V54.016H216.146L218.066 52.096V51.968ZM209.874 18.176V17.152H209.362V18.176H209.874ZM209.874 19.2V18.176H209.362V19.2H209.874ZM209.874 20.224V19.2H209.362V20.224H209.874ZM232.402 21.248V20.224H231.762V21.248H232.402ZM209.874 20.224H209.362V21.248H209.874V20.224ZM232.402 22.272V21.248H231.762V22.272H232.402ZM244.69 25.344V24.32H244.562V25.344H244.69ZM244.69 26.368H244.562V25.344H244.69V26.368ZM237.522 34.56H238.546V32.512H237.522V30.464H236.498V29.44H235.474V25.344H234.45V30.464H235.474V31.488H236.498V33.536H237.522V34.56ZM241.618 35.584H240.978L241.362 35.2V34.56H241.618V35.584ZM215.762 57.6V54.4L216.018 54.144V54.016H216.146L216.018 54.144V57.6H228.306V58.112H216.018V57.6H215.762ZM252.609 8.576V7.552H252.097V8.576H252.609ZM255.681 3.456V8.064H256.705V3.456H255.681ZM260.801 3.456H259.777V8.064H260.801V3.456ZM257.729 3.456V8.064H258.753V3.456H257.729ZM267.969 34.176V32.128H266.945V3.456H265.921V33.152H266.945V34.176H267.969ZM267.969 36.224V35.2H265.921V34.176H264.897V3.456H263.873V35.2H264.897V36.224H267.969ZM267.969 38.272V37.248H263.873V36.224H262.849V3.456H261.825V37.248H262.849V38.272H267.969ZM267.969 42.368V41.344H267.458V42.368H267.969ZM258.753 41.344V42.368H261.313V41.344H259.777V40.32H258.753V38.784H257.729V41.344H258.753ZM267.969 44.416V43.392H267.458V44.416H267.969ZM256.705 43.392V44.416H261.313V43.392H257.729V42.368H256.705V38.784H255.681V43.392H256.705ZM252.609 45.44H252.097V46.464H252.609V45.44ZM252.609 9.6V8.576H252.097V9.6H252.609ZM252.609 10.624V9.6H252.097V10.624H252.609ZM252.609 11.648V10.624H252.097V11.648H252.609ZM252.609 12.672V11.648H252.097V12.672H252.609ZM252.609 13.696V12.672H252.097V13.696H252.609ZM252.609 14.72V13.696H252.097V14.72H252.609ZM252.609 15.744V14.72H252.097V15.744H252.609ZM252.609 16.768V15.744H252.097V16.768H252.609ZM252.609 17.792V16.768H252.097V17.792H252.609ZM252.609 18.816V17.792H252.097V18.816H252.609ZM252.609 19.84V18.816H252.097V19.84H252.609ZM252.609 20.864V19.84H252.097V20.864H252.609ZM252.609 21.888V20.864H252.097V21.888H252.609ZM252.609 22.912V21.888H252.097V22.912H252.609ZM252.609 23.936V22.912H252.097V23.936H252.609ZM252.609 24.96V23.936H252.097V24.96H252.609ZM252.609 25.984V24.96H252.097V25.984H252.609ZM252.609 27.008V25.984H252.097V27.008H252.609ZM252.609 28.032V27.008H252.097V28.032H252.609ZM252.609 29.056V28.032H252.097V29.056H252.609ZM252.609 30.08V29.056H252.097V30.08H252.609ZM252.609 31.104V30.08H252.097V31.104H252.609ZM252.609 32.128V31.104H252.097V32.128H252.609ZM252.609 33.152V32.128H252.097V33.152H252.609ZM252.609 34.176V33.152H252.097V34.176H252.609ZM260.801 40.32H261.313V38.784H261.825V38.272H261.313V38.784H259.777V39.296H260.801V40.32ZM252.609 35.2V34.176H252.097V35.2H252.609ZM252.609 36.224V35.2H252.097V36.224H252.609ZM252.609 37.248V36.224H252.097V37.248H252.609ZM252.609 38.272V37.248H252.097V38.272H252.609ZM252.609 39.296V38.272H252.097V39.296H252.609ZM252.609 40.32V39.296H252.097V40.32H252.609ZM267.969 40.32V39.296H267.458V40.32H267.969ZM252.609 41.344V40.32H252.097V41.344H252.609ZM252.609 42.368V41.344H252.097V42.368H252.609ZM252.609 43.392V42.368H252.097V43.392H252.609ZM252.609 44.416V43.392H252.097V44.416H252.609ZM252.609 45.44V44.416H252.097V45.44H252.609ZM267.969 48.512H252.609V48H252.097V47.488H251.585V6.528H252.097V7.552H252.609V6.528H252.097V6.4L253.633 4.864V4.48H254.017L253.633 4.864V45.44H254.657V46.464H267.969V45.44H255.681V44.416H254.657V4.48H254.017L255.297 3.2H268.097V48H267.969V47.488H253.633V46.464H252.097V47.488H252.609V48H267.969V48.512Z" fill="url(#paint0_linear_1_25)"/>
<defs>
<linearGradient id="paint0_linear_1_25" x1="161.855" y1="-12" x2="161.738" y2="81" gradientUnits="userSpaceOnUse">
<stop stop-color="#0066FF"/>
<stop offset="0.600962" stop-color="#B600E3"/>
</linearGradient>
</defs>
</svg>
