<svg width="214" height="112" viewBox="0 0 214 112" fill="none" xmlns="http://www.w3.org/2000/svg">
<path d="M39 32.875L41.25 28.625V51.75H39V32.875ZM43.5 24.25L45.75 20V51.75H43.5V24.25ZM48 15.75L50.25 11.4688V51.75H48V15.75ZM32.9062 31.8125L31.625 29.4688L47.125 0H49.6562L32.9062 31.8125ZM30.3125 26.9062L29 24.5312L42 0H44.5625L30.3125 26.9062ZM15.25 28.875L17.5 33.125V51.75H15.25V28.875ZM10.75 20.3125L13 24.5625V51.75H10.75V20.3125ZM6.25 11.75L8.5 16.0312V51.75H6.25V11.75ZM24.4375 38.25H21.9062L4 4.28125V51.75H1.75V0H4.28125L24.4375 38.25ZM29.5312 38.25H26.9688L6.84375 0H9.40625L29.5312 38.25ZM52.5 4.28125L34.5938 38.25H32.0312L11.9375 0H14.4688L33.3438 35.875L52.1875 0H54.75V51.75H52.5V4.28125ZM101.531 6.75H103.781L89.625 36.5625V51.75H87.375V36.5625L101.531 6.75ZM97.0312 6.75H99.2812L85.125 36.5625V51.75H82.875V36.5625L97.0312 6.75ZM92.5312 6.75H94.7812L80.625 36.5625V51.75H78.375V36.5625L92.5312 6.75ZM88.0312 6.75H90.2812L76.125 36.5625V51.75H73.875V36.5625L58.7812 6.75H61.0312L74.9688 34.2812L88.0312 6.75ZM63.3125 6.75H65.5625L76.7188 27.9688L75.5938 30.4375L63.3125 6.75ZM67.8125 6.75H70.0938L78.9688 23.0312L77.8125 25.5L67.8125 6.75ZM72.375 6.75H74.625L81.2188 18.125L80.0938 20.5938L72.375 6.75ZM0 60H2.4375L21.6875 108.719L40.9375 60H43.3438L22.9062 111.75H20.4688L0 60ZM23.25 100.5L21.9688 103.375L4.84375 60H7.25L23.25 100.5ZM25.6562 94.3438L24.4688 97.4375L9.6875 60H12.125L25.6562 94.3438ZM28.0312 88.0938L26.8438 91.25L14.5312 60H16.9375L28.0312 88.0938ZM55.4375 60H57.875L37.4062 111.75H35L55.4375 60ZM50.625 60H53.0312L32.5625 111.75H30.1562L50.625 60ZM45.75 60H48.1875L27.7188 111.75H25.3125L45.75 60ZM75.5 66.75H77.75V111.75H75.5V66.75ZM71 66.75H73.25V111.75H71V66.75ZM66.5 66.75H68.75V111.75H66.5V66.75ZM62 66.75H64.25V111.75H62V66.75ZM119.125 93.5938L116.875 89.5V66.75H119.125V93.5938ZM123.625 101.375L121.375 97.5625V66.75H123.625V101.375ZM92.625 84.9062L94.875 89V111.75H92.625V84.9062ZM88.125 76.8125L90.375 80.9375V111.75H88.125V76.8125ZM88.9062 66.75H91.5312L117.594 111.75H114.969L88.9062 66.75ZM94.2188 66.75H96.875L122.906 111.75H120.219L94.2188 66.75ZM99.5 66.75H102.125L125.875 107.844V66.75H128.125V111.75H125.469L99.5 66.75ZM85.875 70.625V111.75H83.625V66.75H86.3125L112.281 111.75H109.688L85.875 70.625ZM174.844 66.75H177.094L162.938 96.5625V111.75H160.688V96.5625L174.844 66.75ZM170.344 66.75H172.594L158.438 96.5625V111.75H156.188V96.5625L170.344 66.75ZM165.844 66.75H168.094L153.938 96.5625V111.75H151.688V96.5625L165.844 66.75ZM161.344 66.75H163.594L149.438 96.5625V111.75H147.188V96.5625L132.094 66.75H134.344L148.281 94.2812L161.344 66.75ZM136.625 66.75H138.875L150.031 87.9688L148.906 90.4375L136.625 66.75ZM141.125 66.75H143.406L152.281 83.0312L151.125 85.5L141.125 66.75ZM145.688 66.75H147.938L154.531 78.125L153.406 80.5938L145.688 66.75ZM180.938 66.75H183.188V111.75H180.938V66.75ZM194.438 66.75H196.688V100.5H213.281V102.75H196.688V105H213.281V107.25H196.688V109.5H213.281V111.75H194.438V66.75ZM189.938 66.75H192.188V111.75H189.938V66.75ZM185.438 66.75H187.688V111.75H185.438V66.75Z" fill="url(#paint0_linear_1_19)"/>
<defs>
<linearGradient id="paint0_linear_1_19" x1="137.906" y1="-2.25" x2="137.619" y2="129.75" gradientUnits="userSpaceOnUse">
<stop stop-color="#0066FF"/>
<stop offset="0.600962" stop-color="#B600E3"/>
</linearGradient>
</defs>
</svg>
