<svg width="253" height="97" viewBox="0 0 253 97" fill="none" xmlns="http://www.w3.org/2000/svg">
<path d="M-3.57628e-07 76.8V1.90735e-06H16.872L21.216 38.616L24.336 70.224H26.28L29.376 38.616L33.72 1.90735e-06H50.616V76.8H49.08V1.248H35.04L30.696 39.72L27.504 71.472H23.112L19.896 39.72L15.552 1.248H1.512V76.8H-3.57628e-07ZM6.192 76.8V44.256L5.472 5.016H11.736L15.936 43.776L19.104 75.24H31.488L34.656 43.776L38.88 5.016H45.144L44.424 44.256V76.8H42.912V45.12L43.656 6.264H40.104L35.976 45.096L32.928 76.488H17.688L14.64 45.096L10.536 6.264H6.96L7.704 45.12V76.8H6.192ZM3.048 76.8V42.336L2.688 2.496H14.28L18.624 40.896L21.744 72.72H28.848L31.992 40.896L36.336 2.496H47.904L47.568 42.336V76.8H46.056V43.44L46.464 3.768H37.68L33.336 42.576L30.168 73.992H20.448L17.28 42.576L12.912 3.768H4.152L4.56 43.44V76.8H3.048ZM64.794 96.432C63.706 96.432 62.642 96.384 61.602 96.288C60.578 96.208 59.69 96.088 58.938 95.928V94.656C59.818 94.816 60.77 94.936 61.794 95.016C62.834 95.112 63.834 95.16 64.794 95.16C67.818 95.16 70.234 94.712 72.042 93.816C73.85 92.936 75.218 91.648 76.146 89.952C77.09 88.256 77.746 86.192 78.114 83.76L87.666 19.2H89.226L79.626 83.976C79.242 86.616 78.538 88.864 77.514 90.72C76.49 92.576 74.962 93.992 72.93 94.968C70.914 95.944 68.202 96.432 64.794 96.432ZM64.794 91.32C64.058 91.32 63.202 91.28 62.226 91.2C61.25 91.12 60.154 91 58.938 90.84V89.592C60.234 89.752 61.354 89.864 62.298 89.928C63.258 89.992 64.09 90.024 64.794 90.024C67.066 90.024 68.762 89.448 69.882 88.296C71.018 87.144 71.762 85.304 72.114 82.776L72.93 76.8H68.154L58.842 19.2H60.354L69.426 75.504H74.682L73.602 83.016C73.218 85.768 72.378 87.84 71.082 89.232C69.786 90.624 67.69 91.32 64.794 91.32ZM64.794 93.888C63.946 93.888 63.002 93.848 61.962 93.768C60.938 93.688 59.93 93.568 58.938 93.408V92.112C60.074 92.272 61.138 92.392 62.13 92.472C63.138 92.552 64.026 92.592 64.794 92.592C68.25 92.592 70.722 91.8 72.21 90.216C73.698 88.632 74.666 86.312 75.114 83.256L76.458 74.184H70.434L67.722 57.216L61.914 19.2H63.45L69.042 56.136L71.466 72.864H76.698L84.618 19.2H86.13L76.626 83.496C76.098 86.984 74.962 89.584 73.218 91.296C71.474 93.024 68.666 93.888 64.794 93.888ZM72.45 71.544L70.338 55.056L65.01 19.2H66.546L71.754 54.024L73.578 70.248H74.514L76.53 53.952L81.522 19.2H83.058L77.826 55.656L75.714 71.544H72.45ZM120.857 76.8L112.144 1.90735e-06H113.68L122.201 75.552H134.704L143.224 1.90735e-06H144.76L136.048 76.8H120.857ZM123.328 74.304L120.184 42.912L115.216 1.90735e-06H116.776L121.6 42.024L124.696 73.032H132.208L135.305 42.024L140.129 1.90735e-06H141.688L136.721 42.912L133.552 74.304H123.328ZM125.8 71.784L122.969 41.472L118.408 1.90735e-06H119.921L124.312 40.8L127.024 70.536H129.88L132.569 40.8L136.984 1.90735e-06H138.497L133.937 41.472L131.104 71.784H125.8ZM152.777 2.064V0.671999H160.385V2.064H152.777ZM152.777 7.608V6.216H160.385V7.608H152.777ZM152.777 4.824V3.456H160.385V4.824H152.777ZM158.873 76.8V19.2H160.385V76.8H158.873ZM152.777 76.8V19.2H154.313V76.8H152.777ZM155.825 76.8V19.2H157.337V76.8H155.825ZM199.354 76.8V32.184C199.354 30.76 199.234 29.32 198.995 27.864C198.755 26.408 198.267 25.072 197.531 23.856C196.811 22.624 195.731 21.632 194.291 20.88C192.867 20.128 190.971 19.752 188.603 19.752C185.819 19.752 183.411 20.352 181.378 21.552C179.362 22.752 177.778 24.384 176.626 26.448H176.266L177.034 19.2H178.57V19.992L177.611 23.544H177.946C179.291 21.768 180.883 20.48 182.722 19.68C184.579 18.864 186.667 18.456 188.987 18.456C191.082 18.456 192.835 18.728 194.243 19.272C195.667 19.816 196.811 20.56 197.675 21.504C198.555 22.432 199.227 23.48 199.691 24.648C200.155 25.816 200.467 27.032 200.627 28.296C200.787 29.56 200.867 30.784 200.867 31.968V76.8H199.354ZM171.058 76.8V19.2H172.594V76.8H171.058ZM177.154 76.8V33.6C177.154 31.84 177.578 30.216 178.427 28.728C179.29 27.224 180.49 26.016 182.026 25.104C183.578 24.192 185.378 23.736 187.427 23.736C189.027 23.736 190.315 23.992 191.291 24.504C192.267 25.016 193.011 25.696 193.523 26.544C194.035 27.392 194.379 28.344 194.555 29.4C194.731 30.44 194.818 31.504 194.818 32.592V76.8H193.307V32.664C193.307 31.32 193.163 30.072 192.875 28.92C192.587 27.752 192.003 26.808 191.123 26.088C190.259 25.368 188.963 25.008 187.234 25.008C185.635 25.008 184.187 25.384 182.891 26.136C181.611 26.872 180.595 27.88 179.842 29.16C179.107 30.44 178.739 31.888 178.739 33.504L178.667 76.8H177.154ZM174.106 76.8V19.2H175.618L175.306 29.928H175.667C176.61 27.16 178.162 24.992 180.323 23.424C182.483 21.84 185.099 21.056 188.171 21.072C191.819 21.088 194.339 22.08 195.73 24.048C197.139 26.016 197.843 28.752 197.843 32.256V76.8H196.331V32.4C196.331 29.152 195.699 26.664 194.435 24.936C193.171 23.208 190.947 22.344 187.763 22.344C185.282 22.344 183.138 22.896 181.331 24C179.522 25.088 178.122 26.496 177.13 28.224C176.155 29.936 175.667 31.752 175.667 33.672V76.8H174.106ZM214.325 96.432C213.237 96.432 212.173 96.384 211.133 96.288C210.109 96.208 209.221 96.088 208.469 95.928V94.656C209.349 94.816 210.301 94.936 211.325 95.016C212.365 95.112 213.365 95.16 214.325 95.16C217.349 95.16 219.765 94.712 221.573 93.816C223.381 92.936 224.749 91.648 225.677 89.952C226.621 88.256 227.277 86.192 227.645 83.76L237.197 19.2H238.757L229.157 83.976C228.773 86.616 228.069 88.864 227.045 90.72C226.021 92.576 224.493 93.992 222.461 94.968C220.445 95.944 217.733 96.432 214.325 96.432ZM214.325 91.32C213.589 91.32 212.733 91.28 211.757 91.2C210.781 91.12 209.685 91 208.469 90.84V89.592C209.765 89.752 210.885 89.864 211.829 89.928C212.789 89.992 213.621 90.024 214.325 90.024C216.597 90.024 218.293 89.448 219.413 88.296C220.549 87.144 221.293 85.304 221.645 82.776L222.461 76.8H217.685L208.373 19.2H209.885L218.957 75.504H224.213L223.133 83.016C222.749 85.768 221.909 87.84 220.613 89.232C219.317 90.624 217.221 91.32 214.325 91.32ZM214.325 93.888C213.477 93.888 212.533 93.848 211.493 93.768C210.469 93.688 209.461 93.568 208.469 93.408V92.112C209.605 92.272 210.669 92.392 211.661 92.472C212.669 92.552 213.557 92.592 214.325 92.592C217.781 92.592 220.253 91.8 221.741 90.216C223.229 88.632 224.197 86.312 224.645 83.256L225.989 74.184H219.965L217.253 57.216L211.445 19.2H212.981L218.573 56.136L220.997 72.864H226.229L234.149 19.2H235.661L226.157 83.496C225.629 86.984 224.493 89.584 222.749 91.296C221.005 93.024 218.197 93.888 214.325 93.888ZM221.981 71.544L219.869 55.056L214.541 19.2H216.077L221.285 54.024L223.109 70.248H224.045L226.061 53.952L231.053 19.2H232.589L227.357 55.656L225.245 71.544H221.981ZM251.029 76.8V1.90735e-06H252.542V76.8H251.029ZM244.933 76.8V1.90735e-06H246.469V76.8H244.933ZM247.981 76.8V1.90735e-06H249.493V76.8H247.981Z" fill="url(#paint0_linear_1_3)"/>
<defs>
<linearGradient id="paint0_linear_1_3" x1="133.23" y1="-18.2" x2="132.997" y2="100.8" gradientUnits="userSpaceOnUse">
<stop stop-color="#0066FF"/>
<stop offset="0.600962" stop-color="#B600E3"/>
</linearGradient>
</defs>
</svg>
